<?xml version="1.0" standalone="no"?>
<!DOCTYPE svg PUBLIC "-//W3C//DTD SVG 20010904//EN"
 "http://www.w3.org/TR/2001/REC-SVG-20010904/DTD/svg10.dtd">
<svg version="1.0" xmlns="http://www.w3.org/2000/svg"
 width="335.000000pt" height="335.000000pt" viewBox="0 0 335.000000 335.000000"
 preserveAspectRatio="xMidYMid meet">
<metadata>
Created by potrace 1.14, written by Peter Selinger 2001-2017
</metadata>
<g transform="translate(0.000000,335.000000) scale(0.100000,-0.100000)"
fill="#000000" stroke="none">
<path d="M638 2394 c-2 -1 -28 -5 -58 -8 -30 -4 -59 -11 -64 -16 -17 -17 -506
-1374 -498 -1382 17 -17 114 -27 237 -24 72 2 139 6 150 9 144 36 212 72 296
156 107 107 162 240 155 376 -4 84 -24 135 -70 178 l-34 33 53 28 c67 35 162
127 197 192 82 153 72 324 -25 398 -57 44 -113 58 -229 61 -59 1 -109 1 -110
-1z m265 -78 c95 -46 125 -130 92 -258 -29 -117 -119 -223 -234 -278 -36 -18
-73 -35 -81 -40 -29 -14 -23 -40 12 -54 71 -30 110 -91 114 -176 5 -123 -40
-240 -129 -333 -112 -118 -241 -165 -448 -166 -157 0 -164 4 -134 71 8 18 112
303 231 633 119 330 221 606 227 612 5 7 12 11 16 9 3 -2 24 -1 46 3 22 4 83
7 136 6 83 -1 104 -5 152 -29z"/>
<path d="M635 2273 c-16 -3 -38 -53 -112 -256 -50 -138 -90 -254 -87 -256 8
-9 146 -1 187 10 135 36 240 137 273 264 42 155 -25 247 -177 244 -35 -1 -73
-4 -84 -6z m192 -76 c24 -23 28 -35 27 -85 0 -151 -132 -285 -295 -299 l-60
-6 12 29 c6 16 35 96 65 177 30 81 61 164 69 184 l15 35 70 -4 c60 -3 74 -8
97 -31z"/>
<path d="M301 1408 c-57 -155 -106 -288 -108 -294 -15 -39 177 -41 270 -4 65
26 160 110 195 172 50 88 67 225 38 291 -36 80 -89 109 -206 115 l-85 4 -104
-284z m279 213 c19 -10 46 -33 58 -52 21 -30 23 -43 19 -106 -11 -181 -147
-318 -329 -331 -46 -3 -68 -1 -68 6 0 9 134 380 172 475 9 25 15 27 62 27 31
0 65 -7 86 -19z"/>
<path d="M1381 2386 c-5 -6 -68 -155 -141 -331 -73 -176 -138 -333 -145 -350
-16 -34 -183 -440 -256 -617 -40 -99 -45 -118 -31 -119 38 -3 184 0 186 3 2 2
26 64 55 138 29 74 66 167 82 205 l29 70 132 0 133 -1 1 -40 c1 -21 3 -112 5
-202 2 -90 8 -166 13 -169 8 -5 68 -6 162 -4 l25 1 -5 143 c-7 174 -16 458
-21 632 -13 480 -18 622 -20 635 -1 12 -21 15 -99 15 -57 1 -100 -3 -105 -9z
m152 -45 c4 0 7 -13 6 -28 -1 -16 2 -131 6 -258 4 -126 8 -268 10 -315 4 -119
17 -549 20 -642 l2 -78 -46 0 -47 0 -3 163 c-1 89 -4 182 -4 207 l-2 45 -175
0 -175 0 -84 -207 -83 -208 -44 0 c-24 0 -44 3 -44 6 0 3 27 72 61 152 34 81
153 370 266 642 113 272 209 502 213 510 7 13 72 19 123 11z"/>
<path d="M1422 2217 c-5 -7 -26 -61 -47 -122 -21 -60 -80 -216 -131 -346 -52
-129 -94 -239 -94 -242 0 -4 73 -7 163 -7 l163 0 -2 113 c-1 61 -3 225 -3 362
-1 240 -2 251 -20 252 -11 1 -24 -4 -29 -10z m-2 -402 c1 -127 1 -238 1 -247
-1 -15 -13 -17 -93 -17 -50 0 -95 2 -100 5 -4 3 -3 13 2 22 9 17 145 361 171
434 7 21 14 36 15 35 2 -1 3 -106 4 -232z"/>
<path d="M1724 2388 c-2 -3 -2 -60 1 -125 2 -65 7 -210 10 -323 3 -113 8 -257
10 -320 2 -63 7 -216 11 -340 6 -204 10 -295 13 -311 1 -3 46 -6 101 -5 l99 0
67 160 c36 89 122 296 191 461 68 165 160 388 205 495 44 107 91 220 104 250
12 30 21 57 18 59 -8 9 -186 5 -194 -4 -4 -5 -31 -68 -60 -140 -28 -71 -58
-143 -65 -160 -7 -16 -19 -46 -26 -65 -7 -19 -16 -37 -20 -40 -6 -4 -238 -5
-259 -1 -3 1 -7 67 -9 149 -2 81 -4 170 -5 199 -1 28 -5 55 -9 59 -9 9 -177
11 -183 2z m756 -55 c0 -4 -199 -488 -225 -548 -8 -16 -35 -82 -60 -145 -26
-63 -53 -128 -60 -145 -7 -16 -35 -82 -61 -145 -25 -63 -67 -164 -93 -225
l-46 -110 -50 -1 c-28 0 -55 1 -61 3 -7 3 -12 40 -14 101 -2 104 -6 241 -14
502 -3 91 -8 257 -12 370 -3 113 -7 238 -8 278 l-3 72 47 0 47 0 2 -147 c2
-82 4 -175 5 -208 l2 -60 165 -1 c90 0 169 2 176 4 6 2 48 95 93 207 81 201
82 204 113 207 33 3 57 0 57 -9z"/>
<path d="M1879 1853 c-3 -24 3 -709 7 -715 2 -4 13 -6 24 -5 14 1 25 16 39 57
57 164 84 238 96 265 24 54 155 390 155 398 0 9 -320 9 -321 0z m242 -49 c4
-2 -33 -104 -82 -226 -49 -122 -89 -228 -89 -235 0 -6 -4 -14 -8 -17 -7 -4
-12 130 -14 409 -1 81 -8 75 95 74 50 0 95 -3 98 -5z"/>
<path d="M3009 2395 c-2 -1 -20 -5 -39 -8 -232 -32 -419 -206 -467 -437 -10
-46 -6 -145 7 -184 7 -22 30 -58 52 -82 l39 -42 -58 -32 c-153 -87 -257 -263
-247 -418 6 -96 53 -164 142 -205 42 -19 63 -21 202 -21 85 1 166 6 180 11 22
10 42 58 164 394 76 211 147 404 156 429 10 25 53 142 95 260 43 118 86 236
96 262 l18 47 -42 12 c-37 11 -290 23 -298 14z m238 -53 c31 -2 31 -3 22 -34
-5 -18 -112 -314 -237 -657 -210 -577 -229 -624 -252 -629 -14 -3 -81 -5 -150
-6 -117 -1 -129 1 -181 26 -70 35 -99 82 -100 161 -1 73 8 111 42 177 47 93
137 175 236 215 64 26 88 59 50 71 -79 24 -131 109 -129 214 4 221 189 420
423 455 24 4 45 8 47 9 2 3 166 1 229 -2z"/>
<path d="M2940 2264 c-147 -39 -257 -160 -289 -315 -21 -99 1 -183 58 -232 41
-34 84 -47 168 -50 l70 -3 107 288 c58 158 106 292 106 297 0 14 -67 31 -120
30 -25 0 -70 -7 -100 -15z m157 -49 c-126 -342 -181 -491 -183 -494 -8 -9
-104 0 -136 14 -58 24 -83 67 -81 145 2 160 118 305 270 339 52 11 134 9 130
-4z"/>
<path d="M2716 1583 c-149 -44 -267 -189 -267 -331 -1 -98 33 -145 118 -167
50 -13 134 -11 160 4 13 7 193 478 193 504 0 13 -150 6 -204 -10z m134 -38 c0
-11 -144 -401 -151 -409 -10 -11 -109 -9 -142 3 -50 19 -69 76 -53 160 25 130
170 248 309 250 20 1 37 -1 37 -4z"/>
<path d="M3180 1127 c-54 -27 -61 -99 -13 -137 34 -27 75 -25 107 5 43 40 33
105 -21 133 -27 15 -42 15 -73 -1z m60 -17 c48 -26 44 -91 -5 -110 -71 -27
-109 75 -41 108 27 14 24 14 46 2z"/>
<path d="M3190 1056 c0 -20 5 -36 10 -36 6 0 10 5 10 12 0 9 3 9 12 0 19 -19
23 -15 23 21 0 28 -4 32 -27 35 -26 3 -28 1 -28 -32z m40 4 c0 -5 -7 -7 -15
-4 -8 4 -12 10 -9 15 6 11 24 2 24 -11z"/>
</g>
</svg>
